    <svg
      xmlns="http://www.w3.org/2000/svg"
      xmlns-xlink="http://www.w3.org/1999/xlink"
      version="1.1"
      id="Calque_1"
      viewBox="0 400 1000 200"
      xml-space="preserve"
      width="300px"
    >
      <g>
        <path
          fill="#181716"
          d="M103,538.5v40.6H53.9V415.5h71.5c46.6,0,68.5,21.6,68.5,61.9c0,33-23.7,61.1-66.6,61.1H103z M103,456.6v42   h18.8c17.2,0,23.5-6.8,23.5-21c0-13.9-6.3-21-24-21H103z"
        />
        <g>
          <path
            fill="#181716"
            d="M498.7,583.8h-68l-38.3-166.6h53.6l11.1,66.1c3.3,20.6,6.1,38.6,8.3,58h4.2c2.2-20.3,4.4-39.4,7.5-58    l10.8-66.1h62.8l10.3,66.1c3.1,18.6,5.3,37.8,7.2,58h4.2c2.5-19.2,5.6-37.5,8.3-58l9.4-66.1h50.8l-37.2,166.6h-71.9l-8.9-70.8    c-2.2-17.8-3.9-36.9-5.6-55.8h-3.9c-1.7,18.9-4.2,38.3-6.4,55.8L498.7,583.8z"
          />
          <path
            fill="#181716"
            d="M645.8,536.6l47.5-10.3c3.6,16.4,16.7,22.2,31.7,22.2c13.3,0,20.8-3.1,20.8-10.6c0-8.3-5.8-13.3-35.8-18.1    c-46.4-6.9-60.5-25.5-60.5-54.7c0-33.6,23.3-52.2,71.9-52.2c47.8,0,67.2,20.6,71.1,48.3l-49.7,9.4c-2.8-13.1-8.1-19.7-24.2-19.7    c-13.3,0-19.7,3.9-19.7,11.7c0,6.7,2.5,11.9,32.8,16.9c54.2,9.2,64.4,30.3,64.4,55.3c0,33.6-21.9,53-73.3,53    C665.2,588,648.9,563,645.8,536.6z"
          />
          <path
            fill="#181716"
            d="M812.8,417.2h132.7v43h-82.8v22.2H940v35.3h-77.2v23.1h82.8v43H812.8V417.2z"
          />
        </g>
        <g>
          <path
            fill="#5754D9"
            d="M396.9,500.4c0,7.5-24.8,11.6-26.7,18.6c-1.9,7.2,17.4,23.1,13.8,29.4c-3.7,6.4-27.2-2.5-32.4,2.7    c-5.2,5.2,3.7,28.7-2.7,32.4c-6.3,3.6-22.2-15.7-29.4-13.8c-6.9,1.8-11.1,26.7-18.6,26.7c-7.5,0-11.6-24.8-18.6-26.7    c-7.2-1.9-23.1,17.4-29.4,13.8c-6.4-3.7,2.5-27.2-2.7-32.4c-5.2-5.2-28.7,3.7-32.4-2.7c-3.6-6.3,15.7-22.2,13.8-29.4    c-1.8-6.9-26.7-11.1-26.7-18.6c0-7.5,24.8-11.6,26.7-18.6c1.9-7.2-17.4-23.1-13.8-29.4c3.7-6.4,27.2,2.5,32.4-2.7    c5.2-5.2-3.7-28.7,2.7-32.4c6.3-3.6,22.2,15.7,29.4,13.8c6.9-1.8,11.1-26.7,18.6-26.7c7.5,0,11.6,24.8,18.6,26.7    c7.2,1.9,23.1-17.4,29.4-13.8c6.4,3.7-2.5,27.2,2.7,32.4c5.2,5.2,28.7-3.7,32.4,2.7c3.6,6.3-15.7,22.2-13.8,29.4    C372.1,488.7,396.9,492.9,396.9,500.4z"
          />
        </g>
      </g>
    </svg>