<?xml version="1.0" encoding="utf-8"?>
<!-- Generator: Adobe Illustrator 26.1.0, SVG Export Plug-In . SVG Version: 6.00 Build 0)  -->
<svg version="1.1" id="Calque_1" xmlns="http://www.w3.org/2000/svg" xmlns:xlink="http://www.w3.org/1999/xlink" x="0px" y="0px"
	 viewBox="0 0 1000 1000" style="enable-background:new 0 0 1000 1000;" xml:space="preserve">
<style type="text/css">
	.st0{fill:#5754D9;}
</style>
<g>
	<path class="st0" d="M936,500c0,34.1-112.8,52.9-121.2,84.4c-8.7,32.5,79.3,105.2,62.8,133.7c-16.7,28.9-123.8-11.2-147.2,12.3
		c-23.5,23.5,16.6,130.5-12.3,147.2c-28.5,16.5-101.1-71.5-133.7-62.8C552.9,823.2,534.1,936,500,936c-34.1,0-52.9-112.8-84.4-121.2
		c-32.5-8.7-105.2,79.3-133.7,62.8c-28.9-16.7,11.2-123.8-12.3-147.2c-23.5-23.5-130.5,16.6-147.2-12.3
		c-16.5-28.5,71.5-101.1,62.8-133.7C176.8,552.9,64,534.1,64,500c0-34.1,112.8-52.9,121.2-84.4c8.7-32.5-79.3-105.2-62.8-133.7
		c16.7-28.9,123.8,11.2,147.2-12.3c23.5-23.5-16.6-130.5,12.3-147.2c28.5-16.5,101.1,71.5,133.7,62.8C447.1,176.8,465.9,64,500,64
		c34.1,0,52.9,112.8,84.4,121.2c32.5,8.7,105.2-79.3,133.7-62.8c28.9,16.7-11.2,123.8,12.3,147.2c23.5,23.5,130.5-16.6,147.2,12.3
		c16.5,28.5-71.5,101.1-62.8,133.7C823.2,447.1,936,465.9,936,500z"/>
</g>
</svg>
